<svg width="100" height="61" viewBox="0 0 100 61" fill="none" xmlns="http://www.w3.org/2000/svg">
<path d="M0 39.8847V36.6041H15.8267V39.8847H0ZM5.98483 60.395V36.6041H9.8419V60.395H5.98483Z" fill="#003787"/>
<path d="M18.6369 60.8273C17.7722 60.8273 16.9796 60.6451 16.2591 60.2848C15.5385 59.9245 14.9536 59.3651 14.5128 58.6106C14.0677 57.8519 13.8473 56.8982 13.8473 55.7453C13.8473 54.834 14.0042 54.0457 14.3178 53.3845C14.6315 52.7232 15.085 52.1638 15.6869 51.706C16.2887 51.2482 17.022 50.8541 17.8867 50.515C18.7513 50.1801 19.7262 49.8919 20.807 49.6503C21.5742 49.4341 22.2185 49.2307 22.7356 49.0357C23.2527 48.845 23.6384 48.5864 23.8885 48.2601C24.1428 47.9337 24.2657 47.4844 24.2657 46.908C24.2657 46.0899 24.0326 45.4287 23.5621 44.9243C23.0916 44.4199 22.3795 44.1656 21.4174 44.1656C20.7901 44.1656 20.2221 44.3055 19.705 44.581C19.1879 44.8565 18.7725 45.2804 18.4631 45.8441C18.1495 46.4078 17.9842 47.1368 17.9587 48.0269L14.3899 47.3403C14.4619 46.357 14.6654 45.4711 15.0045 44.6912C15.3393 43.9113 15.814 43.2501 16.4286 42.7076C17.0432 42.165 17.7807 41.7539 18.6454 41.4657C19.51 41.1775 20.4976 41.0333 21.5996 41.0333C23.1128 41.0333 24.3462 41.3046 25.2957 41.8429C26.2451 42.3854 26.9487 43.195 27.4065 44.2758C27.8642 45.3567 28.0931 46.7257 28.0931 48.3872V52.9648C28.0931 53.6854 28.1101 54.4865 28.1482 55.3639C28.1863 56.2412 28.233 57.1101 28.2923 57.979C28.3516 58.8437 28.4195 59.649 28.4915 60.395H25.0668C24.9693 59.6278 24.8972 58.8437 24.8506 58.0511C24.804 57.2585 24.7658 56.4659 24.7446 55.6733H24.2403C23.9775 56.7075 23.5918 57.6145 23.0874 58.3944C22.583 59.1743 21.9642 59.7762 21.2309 60.1958C20.4976 60.6154 19.6372 60.8273 18.6539 60.8273H18.6369ZM19.972 57.729C20.4298 57.729 20.8621 57.6315 21.269 57.4408C21.6759 57.25 22.0744 56.9703 22.4601 56.61C22.8458 56.2497 23.1933 55.8004 23.507 55.2579C23.8206 54.7154 24.0834 54.1008 24.2996 53.4014V49.9046L25.3084 49.8326C25.0201 50.1928 24.6302 50.4895 24.1385 50.7142C23.6469 50.9431 23.1043 51.1423 22.5152 51.3076C21.926 51.4771 21.3453 51.6551 20.7689 51.8501C20.1924 52.0408 19.6626 52.2697 19.1837 52.5368C18.7047 52.7995 18.3105 53.1429 18.0138 53.5625C17.7129 53.9821 17.5645 54.5289 17.5645 55.2028C17.5645 56.0208 17.7934 56.6439 18.2512 57.0762C18.709 57.5086 19.2854 57.7247 19.9805 57.7247L19.972 57.729Z" fill="#003787"/>
<path d="M29.1993 60.395L34.4636 50.9134L29.1993 41.5038H33.5608L36.7312 48.9679H37.1636L40.3001 41.5038H44.6997L39.4354 50.9134L44.7718 60.395H40.4103L37.1678 52.825H36.7355L33.599 60.395H29.1993Z" fill="#003787"/>
<path d="M49.6037 60.8273C48.739 60.8273 47.9464 60.6451 47.2259 60.2848C46.5053 59.9245 45.9204 59.3651 45.4796 58.6106C45.0345 57.8519 44.8141 56.8982 44.8141 55.7453C44.8141 54.834 44.971 54.0457 45.2846 53.3845C45.5983 52.7232 46.0518 52.1638 46.6537 51.706C47.2555 51.2482 47.9888 50.8541 48.8535 50.515C49.7181 50.1801 50.693 49.8919 51.7738 49.6503C52.541 49.4341 53.1853 49.2307 53.7024 49.0357C54.2195 48.845 54.6052 48.5864 54.8552 48.2601C55.1096 47.9337 55.2325 47.4844 55.2325 46.908C55.2325 46.0899 54.9994 45.4287 54.5289 44.9243C54.0584 44.4199 53.3463 44.1656 52.3842 44.1656C51.7569 44.1656 51.1889 44.3055 50.6718 44.581C50.1547 44.8565 49.7393 45.2804 49.4299 45.8441C49.1163 46.4078 48.951 47.1368 48.9255 48.0269L45.3567 47.3403C45.4287 46.357 45.6322 45.4711 45.9713 44.6912C46.3061 43.9113 46.7808 43.2501 47.3954 42.7076C48.01 42.165 48.7475 41.7539 49.6122 41.4657C50.4768 41.1775 51.4644 41.0333 52.5664 41.0333C54.0796 41.0333 55.313 41.3046 56.2624 41.8429C57.2119 42.3854 57.9155 43.195 58.3732 44.2758C58.831 45.3567 59.0599 46.7257 59.0599 48.3872V52.9648C59.0599 53.6854 59.0768 54.4865 59.115 55.3639C59.1531 56.2412 59.1998 57.1101 59.2591 57.979C59.3184 58.8437 59.3863 59.649 59.4583 60.395H56.0336C55.9361 59.6278 55.864 58.8437 55.8174 58.0511C55.7708 57.2585 55.7326 56.4659 55.7114 55.6733H55.207C54.9443 56.7075 54.5585 57.6145 54.0542 58.3944C53.5498 59.1743 52.9309 59.7762 52.1977 60.1958C51.4644 60.6154 50.604 60.8273 49.6206 60.8273H49.6037ZM50.9388 57.729C51.3966 57.729 51.8289 57.6315 52.2358 57.4408C52.6427 57.25 53.0411 56.9703 53.4269 56.61C53.8126 56.2497 54.1601 55.8004 54.4738 55.2579C54.7874 54.7154 55.0502 54.1008 55.2664 53.4014V49.9046L56.2752 49.8326C55.9869 50.1928 55.597 50.4895 55.1053 50.7142C54.6136 50.9431 54.0711 51.1423 53.482 51.3076C52.8928 51.4771 52.3121 51.6551 51.7357 51.8501C51.1592 52.0408 50.6294 52.2697 50.1505 52.5368C49.6715 52.7995 49.2773 53.1429 48.9806 53.5625C48.6797 53.9821 48.5313 54.5289 48.5313 55.2028C48.5313 56.0208 48.7602 56.6439 49.218 57.0762C49.6757 57.5086 50.2522 57.7247 50.9473 57.7247L50.9388 57.729Z" fill="#003787"/>
<path d="M70.6947 60.8655C69.7071 60.8655 68.8636 60.6197 68.1516 60.128C67.4437 59.6363 66.8758 58.9751 66.4562 58.1444C66.0365 57.3136 65.7186 56.3726 65.5025 55.313H64.8879L64.9939 60.395H61.7853V35.1587H65.6424V39.9186C65.6424 40.4951 65.6127 41.152 65.5533 41.8853C65.494 42.6186 65.405 43.3857 65.2821 44.1911C65.1634 44.9964 65.0278 45.8059 64.8837 46.624H65.5322C65.7737 45.5432 66.1086 44.5852 66.5409 43.7587C66.9733 42.928 67.5327 42.2795 68.2194 41.8132C68.906 41.347 69.741 41.1096 70.7244 41.1096C71.9747 41.1096 73.0725 41.4869 74.022 42.2456C74.9714 43.0043 75.7174 44.1148 76.2557 45.5813C76.7982 47.0478 77.0652 48.8365 77.0652 50.9515C77.0652 53.0666 76.794 54.8256 76.2557 56.3048C75.7131 57.7841 74.9714 58.9115 74.022 59.6914C73.0725 60.4713 71.962 60.8613 70.6862 60.8613L70.6947 60.8655ZM69.6096 57.5849C70.2836 57.5849 70.8812 57.339 71.411 56.8474C71.9408 56.3557 72.3477 55.6224 72.636 54.6476C72.9242 53.6727 73.0683 52.4647 73.0683 51.0236C73.0683 49.5825 72.9242 48.3321 72.636 47.3445C72.3477 46.3612 71.9366 45.6152 71.411 45.1108C70.8812 44.6064 70.2708 44.3521 69.5715 44.3521C69.0417 44.3521 68.5627 44.4962 68.1304 44.7845C67.6981 45.0727 67.3251 45.4584 67.0114 45.9373C66.6978 46.4205 66.4392 46.9419 66.2358 47.5056C66.0323 48.0693 65.8797 48.6288 65.7865 49.1841C65.689 49.7393 65.6424 50.2437 65.6424 50.6972V51.2016C65.6424 51.8755 65.7314 52.5834 65.9136 53.3294C66.0959 54.0753 66.3502 54.7662 66.6893 55.402C67.0241 56.0378 67.4395 56.5634 67.9312 56.9703C68.4228 57.3772 68.9823 57.5849 69.6096 57.5849Z" fill="#003787"/>
<path d="M79.1633 60.395V35.1587H82.9865V60.395H79.1633Z" fill="#003787"/>
<path d="M93.0445 60.8655C91.6246 60.8655 90.4124 60.6239 89.4036 60.1449C88.3948 59.666 87.5641 58.9878 86.9156 58.1062C86.2671 57.2288 85.7924 56.2073 85.4914 55.0417C85.1905 53.8761 85.0421 52.6088 85.0421 51.2398C85.0421 49.8707 85.1905 48.5652 85.4914 47.3276C85.7924 46.0899 86.2501 45.0006 86.8605 44.0639C87.4751 43.1272 88.2719 42.3854 89.2595 41.8471C90.2428 41.3046 91.4084 41.0376 92.7563 41.0376C93.9812 41.0376 95.0578 41.2792 95.9818 41.7581C96.9058 42.2371 97.6645 42.9237 98.2537 43.8138C98.8428 44.7039 99.2624 45.7848 99.5168 47.0563C99.7711 48.3321 99.8474 49.7478 99.7499 51.3118L87.6743 51.528V49.2561L97.1559 49.0781L96.181 50.303C96.2785 48.9086 96.1937 47.7684 95.9267 46.8783C95.6639 45.9882 95.2528 45.3228 94.7018 44.8777C94.1508 44.4327 93.498 44.2123 92.7563 44.2123C91.9128 44.2123 91.2007 44.475 90.6116 45.0049C90.0224 45.5347 89.5774 46.3103 89.2764 47.3318C88.9755 48.3533 88.8272 49.5994 88.8272 51.0617C88.8272 53.2743 89.1705 54.957 89.8529 56.1099C90.5395 57.2627 91.5907 57.8392 93.0064 57.8392C93.5828 57.8392 94.0829 57.7502 94.5026 57.5679C94.9222 57.3857 95.2782 57.1356 95.5664 56.8092C95.8547 56.4828 96.0835 56.0887 96.2531 55.6182C96.4226 55.1477 96.5159 54.6391 96.5413 54.0881L100.004 54.5585C99.9576 55.3512 99.788 56.1268 99.4998 56.8855C99.2116 57.6442 98.792 58.3139 98.2367 58.9031C97.6815 59.4922 96.9821 59.9669 96.1259 60.3272C95.274 60.6875 94.244 60.8697 93.0445 60.8697V60.8655Z" fill="#003787"/>
<path d="M37.367 10.8634H40.8299L44.3691 15.2376L51.7993 6.17132H55.5758L44.4412 20.2136L37.367 10.8634Z" fill="#003787"/>
<path d="M62.6372 18.9548H59.1701L55.6351 14.5848L48.205 23.6468H44.4242L55.5589 9.60877L62.6372 18.9548Z" fill="#003787"/>
<path d="M50.0021 29.8182C39.6897 29.8182 31.2974 23.1297 31.2974 14.907C31.2974 6.68419 39.6855 0 50.0021 0C60.3187 0 68.7068 6.68843 68.7068 14.9112C68.7068 23.134 60.3145 29.8224 50.0021 29.8224V29.8182ZM50.0021 2.46259C41.0461 2.46259 33.7558 8.049 33.7558 14.9112C33.7558 21.7734 41.0418 27.3598 50.0021 27.3598C58.9624 27.3598 66.2485 21.7734 66.2485 14.9112C66.2485 8.049 58.9624 2.46259 50.0021 2.46259Z" fill="#003787"/>
</svg>
